<svg id="l_d_2645" xmlns="http://www.w3.org/2000/svg" xmlns:xlink="http://www.w3.org/1999/xlink" viewBox="0 0 45 45" width="45" height="45" preserveAspectRatio="xMidYMid meet" style="width: 100%; height: 100%; transform: translate3d(0px, 0px, 0px); content-visibility: visible;"><defs id="l_d_2646"><clipPath id="__lottie_element_1134"><rect id="l_d_2649" width="45" height="45" x="0" y="0"></rect></clipPath><g id="__lottie_element_1154"><g id="l_d_2686" transform="matrix(1,0,0,1,-23,-19.25)" opacity="1" style="display: block;"><g id="l_d_2691" opacity="1" transform="matrix(1,0,0,1,40,44)"><path id="l_d_2692" fill="rgb(34,34,34)" fill-opacity="1" d=" M11.930999755859375,0 C11.930999755859375,0 -11.930999755859375,0 -11.930999755859375,0 C-11.930999755859375,0 -14.982999801635742,-21.448999404907227 -14.982999801635742,-21.448999404907227 C-14.982999801635742,-21.448999404907227 15.00100040435791,-21.322999954223633 15.00100040435791,-21.322999954223633 C15.00100040435791,-21.322999954223633 11.930999755859375,0 11.930999755859375,0z"></path></g></g></g><mask id="__lottie_element_1154_1" mask-type="alpha"><use id="l_d_2701" xlink:href="#__lottie_element_1154"></use></mask><g id="__lottie_element_1160"><g id="l_d_2702" transform="matrix(1,0,0,1,-23,-19.25)" opacity="1" style="display: block;"><g id="l_d_2707" opacity="1" transform="matrix(1,0,0,1,40,44)"><path id="l_d_2708" fill="rgb(34,34,34)" fill-opacity="1" d=" M11.930999755859375,0 C11.930999755859375,0 -11.930999755859375,0 -11.930999755859375,0 C-11.930999755859375,0 -14.982999801635742,-21.448999404907227 -14.982999801635742,-21.448999404907227 C-14.982999801635742,-21.448999404907227 15.00100040435791,-21.322999954223633 15.00100040435791,-21.322999954223633 C15.00100040435791,-21.322999954223633 11.930999755859375,0 11.930999755859375,0z"></path></g></g></g><mask id="__lottie_element_1160_1" mask-type="alpha"><use id="l_d_2717" xlink:href="#__lottie_element_1160"></use></mask><g id="__lottie_element_1166"><g id="l_d_2718" transform="matrix(0.7500000596046448,0,0,0.7500000596046448,-13.00000286102295,-9.25000286102295)" opacity="1" style="display: none;"><g id="l_d_2723" opacity="1" transform="matrix(1,0,0,1,40,44)"><path id="l_d_2724" fill="rgb(34,34,34)" fill-opacity="1" d=" M-14.991999626159668,10.925999641418457 C-14.991999626159668,10.925999641418457 -11.930999755859375,0 -11.930999755859375,0 C-11.930999755859375,0 11.930999755859375,0 11.930999755859375,0 C11.930999755859375,0 14.991999626159668,11.052000045776367 14.991999626159668,11.052000045776367"></path></g></g></g><filter id="__lottie_element_1172" filterUnits="objectBoundingBox" x="0%" y="0%" width="100%" height="100%"><feComponentTransfer id="l_d_2735" in="SourceGraphic"><feFuncA id="l_d_2736" type="table" tableValues="1.0 0.0"></feFuncA></feComponentTransfer></filter><mask id="__lottie_element_1166_2" mask-type="alpha"><g id="l_d_2733" filter="url(#__lottie_element_1172)"><rect id="l_d_2737" width="45" height="45" x="0" y="0" fill="#ffffff" opacity="0"></rect><use id="l_d_2738" xlink:href="#__lottie_element_1166"></use></g></mask><g id="__lottie_element_1173"><g id="l_d_2739" transform="matrix(0.7500000596046448,0,0,0.7500000596046448,-13.00000286102295,-9.25000286102295)" opacity="1" style="display: none;"><g id="l_d_2744" opacity="1" transform="matrix(1,0,0,1,40,44)"><path id="l_d_2745" fill="rgb(34,34,34)" fill-opacity="1" d=" M-14.991999626159668,10.925999641418457 C-14.991999626159668,10.925999641418457 -11.930999755859375,0 -11.930999755859375,0 C-11.930999755859375,0 11.930999755859375,0 11.930999755859375,0 C11.930999755859375,0 14.991999626159668,11.052000045776367 14.991999626159668,11.052000045776367"></path></g></g></g><filter id="__lottie_element_1179" filterUnits="objectBoundingBox" x="0%" y="0%" width="100%" height="100%"><feComponentTransfer id="l_d_2756" in="SourceGraphic"><feFuncA id="l_d_2757" type="table" tableValues="1.0 0.0"></feFuncA></feComponentTransfer></filter><mask id="__lottie_element_1173_2" mask-type="alpha"><g id="l_d_2754" filter="url(#__lottie_element_1179)"><rect id="l_d_2758" width="45" height="45" x="0" y="0" fill="#ffffff" opacity="0"></rect><use id="l_d_2759" xlink:href="#__lottie_element_1173"></use></g></mask></defs><g id="l_d_2647" clip-path="url(#__lottie_element_1134)"><g id="l_d_2760" transform="matrix(1,0,0,1,-23,-19.25)" opacity="1" style="display: block;"><g id="l_d_2764" opacity="1" transform="matrix(1,0,0,1,40,49)"><path id="l_d_2765" stroke-linecap="butt" stroke-linejoin="round" fill-opacity="0" stroke="rgb(34,34,34)" stroke-opacity="1" stroke-width="2" d=" M-12,-5 C-12,-5 12,-5 12,-5 C12,-5 12,5 12,5 C12,5 -12,5 -12,5 C-12,5 -12,-5 -12,-5z"></path></g><g id="l_d_2766" opacity="1" transform="matrix(1,0,0,1,40,44)"><path id="l_d_2767" stroke-linecap="butt" stroke-linejoin="round" fill-opacity="0" stroke="rgb(34,34,34)" stroke-opacity="1" stroke-width="2" d=" M-15,0 C-15,0 15,0 15,0"></path></g></g><g id="l_d_2747" mask="url(#__lottie_element_1173_2)" style="display: none;"><g id="l_d_2746" transform="matrix(0,0,0,0,16.495208740234375,13.974493026733398)" opacity="1"><g id="l_d_2750" opacity="1" transform="matrix(1,0,0,1,0,0)"><g id="l_d_2751" opacity="1" transform="matrix(1,0,0,1,40,41.479000091552734)"><path id="l_d_2752" stroke-linecap="butt" stroke-linejoin="miter" fill-opacity="0" stroke-miterlimit="4" stroke="rgb(34,34,34)" stroke-opacity="1" stroke-width="2" d=" M0,3.244999885559082 C1.2369999885559082,3.244999885559082 2.25,2.1760001182556152 2.25,1.0809999704360962 C2.25,-0.10899999737739563 0.7057620882987976,-1.5476130247116089 -0.7942379117012024,-3.2416131496429443 C-2.2942378520965576,-1.5476130247116089 -2.25,-0.10899999737739563 -2.25,1.0809999704360962 C-2.25,2.1760001182556152 -1.2369999885559082,3.244999885559082 0,3.244999885559082 C0,3.244999885559082 0,3.244999885559082 0,3.244999885559082z"></path></g></g></g></g><g id="l_d_2726" mask="url(#__lottie_element_1166_2)" style="display: none;"><g id="l_d_2725" transform="matrix(0,0,0,0,16.697126388549805,13.065869331359863)" opacity="1"><g id="l_d_2729" opacity="1" transform="matrix(1,0,0,1,0,0)"><g id="l_d_2730" opacity="1" transform="matrix(1,0,0,1,40,36.91899871826172)"><path id="l_d_2731" stroke-linecap="round" stroke-linejoin="miter" fill-opacity="0" stroke-miterlimit="4" stroke="rgb(34,34,34)" stroke-opacity="1" stroke-width="2" d=" M0,-8.11400032043457 C3.318000078201294,-6.011000156402588 6,-1.3519999980926514 6,2.0280001163482666 C6,6.085000038146973 3.0380001068115234,8.11400032043457 0,8.11400032043457 C-2.990000009536743,8.11400032043457 -6,6.5920000076293945 -6,2.0280001163482666 C-6,0.33799999952316284 -5.166999816894531,-1.690000057220459 -3.5,-4.057000160217285 C-3.5,-4.057000160217285 -2,-3.0429999828338623 -2,-3.0429999828338623 C-2,-3.0429999828338623 -1.5,-7.544000148773193 0,-8.11400032043457z"></path></g></g></g></g><g id="l_d_2710" mask="url(#__lottie_element_1160_1)" style="display: block;"><g id="l_d_2709" transform="matrix(1,0,0,1,-23,-19.250003814697266)" opacity="1"><g id="l_d_2713" opacity="1" transform="matrix(1,0,0,1,0,0)"><g id="l_d_2714" opacity="1" transform="matrix(1,0,0,1,40,41.479000091552734)"><path id="l_d_2715" stroke-linecap="butt" stroke-linejoin="miter" fill-opacity="0" stroke-miterlimit="4" stroke="rgb(34,34,34)" stroke-opacity="1" stroke-width="2" d=" M0,3.244999885559082 C1.2369999885559082,3.244999885559082 2.25,2.1760001182556152 2.25,1.0809999704360962 C2.25,-0.10899999737739563 1.5,-1.5509999990463257 0,-3.244999885559082 C-1.5,-1.5509999990463257 -2.25,-0.10899999737739563 -2.25,1.0809999704360962 C-2.25,2.1760001182556152 -1.2369999885559082,3.244999885559082 0,3.244999885559082 C0,3.244999885559082 0,3.244999885559082 0,3.244999885559082z"></path></g></g></g></g><g id="l_d_2694" mask="url(#__lottie_element_1154_1)" style="display: block;"><g id="l_d_2693" transform="matrix(1,0,0,1,-23,-19.25)" opacity="1"><g id="l_d_2697" opacity="1" transform="matrix(1,0,0,1,0,0)"><g id="l_d_2698" opacity="1" transform="matrix(1,0,0,1,40,36.91899871826172)"><path id="l_d_2699" stroke-linecap="round" stroke-linejoin="miter" fill-opacity="0" stroke-miterlimit="4" stroke="rgb(34,34,34)" stroke-opacity="1" stroke-width="2" d=" M0,-8.11400032043457 C3.318000078201294,-6.011000156402588 6,-1.3519999980926514 6,2.0280001163482666 C6,6.085000038146973 3.0380001068115234,8.11400032043457 0,8.11400032043457 C-2.990000009536743,8.11400032043457 -6,6.5920000076293945 -6,2.0280001163482666 C-6,0.33799999952316284 -5.166999816894531,-1.690000057220459 -3.5,-4.057000160217285 C-3.5,-4.057000160217285 -2,-3.0429999828338623 -2,-3.0429999828338623 C-2,-3.0429999828338623 -1.5,-7.544000148773193 0,-8.11400032043457z"></path></g></g></g></g><g id="l_d_2680" transform="matrix(0,0,0,0,18.08599853515625,-0.4510002136230469)" opacity="1" style="display: block;"><g id="l_d_2684" opacity="1" transform="matrix(1,0,0,1,-5.414000034332275,2.6740000247955322)"><path id="l_d_2685" fill="rgb(34,34,34)" fill-opacity="1" d=" M0,-0.5 C0.27595001459121704,-0.5 0.5,-0.27595001459121704 0.5,0 C0.5,0.27595001459121704 0.27595001459121704,0.5 0,0.5 C-0.27595001459121704,0.5 -0.5,0.27595001459121704 -0.5,0 C-0.5,-0.27595001459121704 -0.27595001459121704,-0.5 0,-0.5z"></path></g></g><g id="l_d_2674" transform="matrix(0,0,0,0,10.08599853515625,-1.7010002136230469)" opacity="1" style="display: block;"><g id="l_d_2678" opacity="1" transform="matrix(1,0,0,1,-5.414000034332275,2.6740000247955322)"><path id="l_d_2679" fill="rgb(34,34,34)" fill-opacity="1" d=" M0,-1 C0.5519000291824341,-1 1,-0.5519000291824341 1,0 C1,0.5519000291824341 0.5519000291824341,1 0,1 C-0.5519000291824341,1 -1,0.5519000291824341 -1,0 C-1,-0.5519000291824341 -0.5519000291824341,-1 0,-1z"></path></g></g><g id="l_d_2668" transform="matrix(0,0,0,0,24.83599853515625,-0.20100021362304688)" opacity="1" style="display: block;"><g id="l_d_2672" opacity="1" transform="matrix(1,0,0,1,-5.414000034332275,2.6740000247955322)"><path id="l_d_2673" fill="rgb(34,34,34)" fill-opacity="1" d=" M0,-1 C0.5519000291824341,-1 1,-0.5519000291824341 1,0 C1,0.5519000291824341 0.5519000291824341,1 0,1 C-0.5519000291824341,1 -1,0.5519000291824341 -1,0 C-1,-0.5519000291824341 -0.5519000291824341,-1 0,-1z"></path></g></g><g id="l_d_2662" transform="matrix(0,0,0,0,12.46099853515625,0.6739997863769531)" opacity="1" style="display: block;"><g id="l_d_2666" opacity="1" transform="matrix(1,0,0,1,-5.414000034332275,2.6740000247955322)"><path id="l_d_2667" fill="rgb(34,34,34)" fill-opacity="1" d=" M0,-0.5 C0.27595001459121704,-0.5 0.5,-0.27595001459121704 0.5,0 C0.5,0.27595001459121704 0.27595001459121704,0.5 0,0.5 C-0.27595001459121704,0.5 -0.5,0.27595001459121704 -0.5,0 C-0.5,-0.27595001459121704 -0.27595001459121704,-0.5 0,-0.5z"></path></g></g><g id="l_d_2656" transform="matrix(0,0,0,0,14.08599853515625,-4.326000213623047)" opacity="1" style="display: block;"><g id="l_d_2660" opacity="1" transform="matrix(1,0,0,1,-5.414000034332275,2.6740000247955322)"><path id="l_d_2661" fill="rgb(34,34,34)" fill-opacity="1" d=" M0,-1 C0.5519000291824341,-1 1,-0.5519000291824341 1,0 C1,0.5519000291824341 0.5519000291824341,1 0,1 C-0.5519000291824341,1 -1,0.5519000291824341 -1,0 C-1,-0.5519000291824341 -0.5519000291824341,-1 0,-1z"></path></g></g><g id="l_d_2650" transform="matrix(0,0,0,0,17.71099853515625,-5.201000213623047)" opacity="1" style="display: block;"><g id="l_d_2654" opacity="1" transform="matrix(1,0,0,1,-5.414000034332275,2.6740000247955322)"><path id="l_d_2655" fill="rgb(34,34,34)" fill-opacity="1" d=" M0,-1 C0.5519000291824341,-1 1,-0.5519000291824341 1,0 C1,0.5519000291824341 0.5519000291824341,1 0,1 C-0.5519000291824341,1 -1,0.5519000291824341 -1,0 C-1,-0.5519000291824341 -0.5519000291824341,-1 0,-1z"></path></g></g></g></svg>