<svg id="l_d_2307" xmlns="http://www.w3.org/2000/svg" xmlns:xlink="http://www.w3.org/1999/xlink" viewBox="0 0 45 45" width="45" height="45" preserveAspectRatio="xMidYMid meet" style="width: 100%; height: 100%; transform: translate3d(0px, 0px, 0px); content-visibility: visible;"><defs id="l_d_2308"><clipPath id="__lottie_element_1000"><rect id="l_d_2311" width="45" height="45" x="0" y="0"></rect></clipPath><g id="__lottie_element_1003"><g id="l_d_2312" style="display: none;"><g id="l_d_2317"><path id="l_d_2318"></path></g></g></g><mask id="__lottie_element_1003_1" mask-type="alpha"><use id="l_d_2331" xlink:href="#__lottie_element_1003"></use></mask><g id="__lottie_element_1018"><g id="l_d_2350" style="display: none;"><g id="l_d_2355"><path id="l_d_2356"></path></g></g></g><mask id="__lottie_element_1018_1" mask-type="alpha"><use id="l_d_2364" xlink:href="#__lottie_element_1018"></use></mask></defs><g id="l_d_2309" clip-path="url(#__lottie_element_1000)"><g id="l_d_2358" mask="url(#__lottie_element_1018_1)" style="display: none;"><g id="l_d_2357"><g id="l_d_2361"><path id="l_d_2362" stroke-linecap="butt" stroke-linejoin="miter" fill-opacity="0" stroke-miterlimit="4"></path></g></g></g><g id="l_d_2344" transform="matrix(1,0,0,1,-22.625,-17.5)" opacity="1" style="display: block;"><g id="l_d_2348" opacity="1" transform="matrix(1,0,0,1,40,40)"><path id="l_d_2349" stroke-linecap="butt" stroke-linejoin="miter" fill-opacity="0" stroke-miterlimit="4" stroke="rgb(34,34,34)" stroke-opacity="1" stroke-width="2" d=" M-10,-12 C-10,-12 10,-12 10,-12 C12.208999633789062,-12 14,-10.208999633789062 14,-8 C14,-8 14,8 14,8 C14,10.208999633789062 12.208999633789062,12 10,12 C10,12 -10,12 -10,12 C-12.208999633789062,12 -14,10.208999633789062 -14,8 C-14,8 -14,-8 -14,-8 C-14,-10.208999633789062 -12.208999633789062,-12 -10,-12z"></path></g></g><g id="l_d_2338" transform="matrix(1,0,0,1,-22.625,-17.5)" opacity="1" style="display: block;"><g id="l_d_2342" opacity="1" transform="matrix(1,0,0,1,40,40)"><path id="l_d_2343" stroke-linecap="butt" stroke-linejoin="miter" fill-opacity="0" stroke-miterlimit="4" stroke="rgb(34,34,34)" stroke-opacity="1" stroke-width="2" d=" M-2,2 C-2.062000036239624,2.875 -2,6 -2,6 C-2,6 2,6 2,6 C2,6 2,2 2,2 C2,2 6,2 6,2 C6,2 6,-2 6,-2 C6,-2 2,-2 2,-2 C2,-2 2,-6 2,-6 C2,-6 -2,-6 -2,-6 C-2,-6 -2,-2 -2,-2 C-2,-2 -6,-2 -6,-2 C-6,-2 -6,2 -6,2 C-6,2 -3,1.937999963760376 -2,2z"></path></g></g><g id="l_d_2332" style="display: none;"><g id="l_d_2336"><path id="l_d_2337" stroke-linecap="butt" stroke-linejoin="miter" fill-opacity="0" stroke-miterlimit="4"></path></g></g><g id="l_d_2320" mask="url(#__lottie_element_1003_1)" style="display: none;"><g id="l_d_2319"><g id="l_d_2323"><g id="l_d_2324"><path id="l_d_2325" stroke-linecap="butt" stroke-linejoin="round" fill-opacity="0"></path></g><g id="l_d_2326"><path id="l_d_2327" stroke-linecap="butt" stroke-linejoin="round" fill-opacity="0"></path></g><g id="l_d_2328"><path id="l_d_2329"></path></g></g></g></g></g></svg>