<svg id="l_d_2062" xmlns="http://www.w3.org/2000/svg" xmlns:xlink="http://www.w3.org/1999/xlink" viewBox="0 0 45 45" width="45" height="45" preserveAspectRatio="xMidYMid meet" style="width: 100%; height: 100%; transform: translate3d(0px, 0px, 0px); content-visibility: visible;"><defs id="l_d_2063"><clipPath id="__lottie_element_921"><rect id="l_d_2066" width="45" height="45" x="0" y="0"></rect></clipPath><g id="__lottie_element_932"><g id="l_d_2100" style="display: none;" transform="matrix(0.9999994039535522,0,0,0.9999994039535522,-23.499977111816406,-17.499977111816406)" opacity="1"><g id="l_d_2105" opacity="1" transform="matrix(1,0,0,1,40,40)"><path id="l_d_2106" fill="rgb(255,0,0)" fill-opacity="1" d=" M-12.000306129455566,-4.997529029846191 C-12.000306129455566,-4.997529029846191 12.00030517578125,-4.997529029846191 12.00030517578125,-4.997529029846191 C12.552305221557617,-4.997529029846191 13.00030517578125,-4.549559116363525 13.00030517578125,-3.997594118118286 C13.00030517578125,-3.997594118118286 12.999978065490723,11.983305931091309 12.999978065490723,11.983305931091309 C12.999978065490723,12.535270690917969 12.55197811126709,12.983241081237793 11.999978065490723,12.983241081237793 C11.999978065490723,12.983241081237793 -12.000021934509277,12.983241081237793 -12.000021934509277,12.983241081237793 C-12.552021980285645,12.983241081237793 -13.000021934509277,12.535270690917969 -13.000021934509277,11.983305931091309 C-13.000021934509277,11.983305931091309 -13.000306129455566,-3.997594118118286 -13.000306129455566,-3.997594118118286 C-13.000306129455566,-4.549559116363525 -12.552306175231934,-4.997529029846191 -12.000306129455566,-4.997529029846191z"></path></g></g></g><mask id="__lottie_element_932_1" mask-type="alpha"><use id="l_d_2114" xlink:href="#__lottie_element_932"></use></mask><g id="__lottie_element_938"><g id="l_d_2115" style="display: none;" transform="matrix(0.9999994039535522,0,0,0.9999994039535522,-23.499977111816406,-17.499977111816406)" opacity="1"><g id="l_d_2120" opacity="1" transform="matrix(1,0,0,1,40,40)"><path id="l_d_2121" fill="rgb(255,0,0)" fill-opacity="1" d=" M-12.0082368850708,-4.996180057525635 C-12.0082368850708,-4.996180057525635 12.006499290466309,-4.996119022369385 12.006499290466309,-4.996119022369385 C12.558499336242676,-4.996119022369385 13.006499290466309,-4.548149108886719 13.006499290466309,-3.9961841106414795 C13.006499290466309,-3.9961841106414795 13.006853103637695,11.969109535217285 13.006853103637695,11.969109535217285 C13.006853103637695,12.521075248718262 12.558853149414062,12.96904468536377 12.006853103637695,12.96904468536377 C12.006853103637695,12.96904468536377 -12.011272430419922,12.96904468536377 -12.011272430419922,12.96904468536377 C-12.563272476196289,12.96904468536377 -13.011272430419922,12.521075248718262 -13.011272430419922,11.969109535217285 C-13.011272430419922,11.969109535217285 -13.0082368850708,-3.996243953704834 -13.0082368850708,-3.996243953704834 C-13.0082368850708,-4.548209190368652 -12.560236930847168,-4.996180057525635 -12.0082368850708,-4.996180057525635z"></path></g></g></g><mask id="__lottie_element_938_1" mask-type="alpha"><use id="l_d_2140" xlink:href="#__lottie_element_938"></use></mask></defs><g id="l_d_2064" clip-path="url(#__lottie_element_921)"><g id="l_d_2141" transform="matrix(0.9999498724937439,0,0,0.9999498724937439,-23.497997283935547,-17.497997283935547)" opacity="1" style="display: none;"><g id="l_d_2145" opacity="1" transform="matrix(1,0,0,1,40,40)"></g><g id="l_d_2146" opacity="1" transform="matrix(1,0,0,1,40,40)"><path id="l_d_2147" stroke-linecap="butt" stroke-linejoin="miter" fill-opacity="0" stroke-miterlimit="4" stroke="rgb(34,34,34)" stroke-opacity="1" stroke-width="2" d=" M-12,-13 C-12,-13 12,-13 12,-13 C12.552000045776367,-13 13,-12.552000045776367 13,-12 C13,-12 13,12 13,12 C13,12.552000045776367 12.552000045776367,13 12,13 C12,13 -12,13 -12,13 C-12.552000045776367,13 -13,12.552000045776367 -13,12 C-13,12 -13,-12 -13,-12 C-13,-12.552000045776367 -12.552000045776367,-13 -12,-13z"></path></g><g id="l_d_2148" opacity="1" transform="matrix(1,0,0,1,40,35)"><path id="l_d_2149" stroke-linecap="butt" stroke-linejoin="miter" fill-opacity="0" stroke-miterlimit="4" stroke="rgb(34,34,34)" stroke-opacity="1" stroke-width="2" d=" M13,0 C13,0 -13,0 -13,0"></path></g><g id="l_d_2150" opacity="1" transform="matrix(1,0,0,1,49,31)"><path id="l_d_2151" fill="rgb(0,0,0)" fill-opacity="1" d=" M0,-1 C0.5519999861717224,-1 1,-0.5519999861717224 1,0 C1,0.5519999861717224 0.5519999861717224,1 0,1 C-0.5519999861717224,1 -1,0.5519999861717224 -1,0 C-1,-0.5519999861717224 -0.5519999861717224,-1 0,-1z"></path></g><g id="l_d_2152" opacity="1" transform="matrix(1,0,0,1,43,31)"><path id="l_d_2153" fill="rgb(0,0,0)" fill-opacity="1" d=" M0,-1 C0.5519999861717224,-1 1,-0.5519999861717224 1,0 C1,0.5519999861717224 0.5519999861717224,1 0,1 C-0.5519999861717224,1 -1,0.5519999861717224 -1,0 C-1,-0.5519999861717224 -0.5519999861717224,-1 0,-1z"></path></g><g id="l_d_2154" opacity="1" transform="matrix(1,0,0,1,37,31)"><path id="l_d_2155" fill="rgb(0,0,0)" fill-opacity="1" d=" M0,-1 C0.5519999861717224,-1 1,-0.5519999861717224 1,0 C1,0.5519999861717224 0.5519999861717224,1 0,1 C-0.5519999861717224,1 -1,0.5519999861717224 -1,0 C-1,-0.5519999861717224 -0.5519999861717224,-1 0,-1z"></path></g><g id="l_d_2156" opacity="1" transform="matrix(1,0,0,1,31,31)"><path id="l_d_2157" fill="rgb(0,0,0)" fill-opacity="1" d=" M0,-1 C0.5519999861717224,-1 1,-0.5519999861717224 1,0 C1,0.5519999861717224 0.5519999861717224,1 0,1 C-0.5519999861717224,1 -1,0.5519999861717224 -1,0 C-1,-0.5519999861717224 -0.5519999861717224,-1 0,-1z"></path></g></g><g id="l_d_2123" mask="url(#__lottie_element_938_1)" style="display: none;"><g id="l_d_2122" transform="matrix(0.9999994039535522,0,0,0.9999994039535522,-23.499977111816406,-17.499977111816406)" opacity="1"><g id="l_d_2126" opacity="1" transform="matrix(1,0,0,1,40,40)"></g><g id="l_d_2127" opacity="1" transform="matrix(1,0,0,1,40,40)"><path id="l_d_2128" stroke-linecap="butt" stroke-linejoin="miter" fill-opacity="0" stroke-miterlimit="4" stroke="rgb(34,34,34)" stroke-opacity="1" stroke-width="2" d=" M-12,-13 C-12,-13 12,-13 12,-13 C12.552000045776367,-13 13,-12.552000045776367 13,-12 C13,-12 13,12 13,12 C13,12.552000045776367 12.552000045776367,13 12,13 C12,13 -12,13 -12,13 C-12.552000045776367,13 -13,12.552000045776367 -13,12 C-13,12 -13,-12 -13,-12 C-13,-12.552000045776367 -12.552000045776367,-13 -12,-13z"></path></g><g id="l_d_2129" opacity="1" transform="matrix(1,0,0,1,40,35)"><path id="l_d_2130" stroke-linecap="butt" stroke-linejoin="miter" fill-opacity="0" stroke-miterlimit="4" stroke="rgb(34,34,34)" stroke-opacity="1" stroke-width="2" d=" M13,0 C13,0 -13,0 -13,0"></path></g><g id="l_d_2131" opacity="1" transform="matrix(1,0,0,1,49,31)"><path id="l_d_2132" fill="rgb(0,0,0)" fill-opacity="1" d=" M0,-1 C0.5519999861717224,-1 1,-0.5519999861717224 1,0 C1,0.5519999861717224 0.5519999861717224,1 0,1 C-0.5519999861717224,1 -1,0.5519999861717224 -1,0 C-1,-0.5519999861717224 -0.5519999861717224,-1 0,-1z"></path></g><g id="l_d_2133" opacity="1" transform="matrix(1,0,0,1,43,31)"><path id="l_d_2134" fill="rgb(0,0,0)" fill-opacity="1" d=" M0,-1 C0.5519999861717224,-1 1,-0.5519999861717224 1,0 C1,0.5519999861717224 0.5519999861717224,1 0,1 C-0.5519999861717224,1 -1,0.5519999861717224 -1,0 C-1,-0.5519999861717224 -0.5519999861717224,-1 0,-1z"></path></g><g id="l_d_2135" opacity="1" transform="matrix(1,0,0,1,37,31)"><path id="l_d_2136" fill="rgb(0,0,0)" fill-opacity="1" d=" M0,-1 C0.5519999861717224,-1 1,-0.5519999861717224 1,0 C1,0.5519999861717224 0.5519999861717224,1 0,1 C-0.5519999861717224,1 -1,0.5519999861717224 -1,0 C-1,-0.5519999861717224 -0.5519999861717224,-1 0,-1z"></path></g><g id="l_d_2137" opacity="1" transform="matrix(1,0,0,1,31,31)"><path id="l_d_2138" fill="rgb(0,0,0)" fill-opacity="1" d=" M0,-1 C0.5519999861717224,-1 1,-0.5519999861717224 1,0 C1,0.5519999861717224 0.5519999861717224,1 0,1 C-0.5519999861717224,1 -1,0.5519999861717224 -1,0 C-1,-0.5519999861717224 -0.5519999861717224,-1 0,-1z"></path></g></g></g><g id="l_d_2108" mask="url(#__lottie_element_932_1)" style="display: none;"><g id="l_d_2107" transform="matrix(0.9999994039535522,0,0,0.9999994039535522,-23.499977111816406,-15.998978614807129)" opacity="1"><g id="l_d_2111" opacity="1" transform="matrix(1,0,0,1,33.5,43.5)"><path id="l_d_2112" stroke-linecap="butt" stroke-linejoin="round" fill-opacity="0" stroke="rgb(34,34,34)" stroke-opacity="1" stroke-width="2" d=" M1.4390000104904175,-5.216000080108643 C1.4390000104904175,-5.216000080108643 11.713000297546387,-5.216000080108643 11.713000297546387,-5.216000080108643 C14.218000411987305,-5.216000080108643 16.30500030517578,-3.2950000762939453 16.51300048828125,-0.7990000247955322 C16.51300048828125,-0.7990000247955322 16.614999771118164,0.42800000309944153 16.614999771118164,0.42800000309944153 C16.75,2.0480000972747803 15.545000076293945,3.4719998836517334 13.925000190734863,3.6070001125335693 C13.843999862670898,3.614000082015991 13.762999534606934,3.617000102996826 13.680999755859375,3.617000102996826 C13.680999755859375,3.617000102996826 -0.5289999842643738,3.617000102996826 -0.5289999842643738,3.617000102996826 C-2.1549999713897705,3.617000102996826 -3.4730000495910645,2.2990000247955322 -3.4730000495910645,0.6729999780654907 C-3.4730000495910645,0.5910000205039978 -3.4700000286102295,0.5090000033378601 -3.4630000591278076,0.42800000309944153 C-3.4630000591278076,0.42800000309944153 -3.3610000610351562,-0.7990000247955322 -3.3610000610351562,-0.7990000247955322 C-3.1530001163482666,-3.2950000762939453 -1.065999984741211,-5.216000080108643 1.4390000104904175,-5.216000080108643z M5.104000091552734,-5.216000080108643 C5.104000091552734,-5.216000080108643 7.311999797821045,-1.534999966621399 7.311999797821045,-1.534999966621399 M9.520000457763672,-5.216000080108643 C9.520000457763672,-5.216000080108643 11.727999687194824,-1.534999966621399 11.727999687194824,-1.534999966621399 M0.6880000233650208,-5.216000080108643 C0.6880000233650208,-5.216000080108643 2.8959999084472656,-1.534999966621399 2.8959999084472656,-1.534999966621399"></path></g></g></g><g id="l_d_2083" transform="matrix(0.9999994039535522,0,0,0.9999994039535522,-23.499977111816406,-17.499977111816406)" opacity="1" style="display: block;"><g id="l_d_2087" opacity="1" transform="matrix(1,0,0,1,40,40)"></g><g id="l_d_2088" opacity="1" transform="matrix(1,0,0,1,40,40)"><path id="l_d_2089" stroke-linecap="butt" stroke-linejoin="miter" fill-opacity="0" stroke-miterlimit="4" stroke="rgb(34,34,34)" stroke-opacity="1" stroke-width="2" d=" M-12,-13 C-12,-13 12,-13 12,-13 C12.552000045776367,-13 13,-12.552000045776367 13,-12 C13,-12 13,12 13,12 C13,12.552000045776367 12.552000045776367,13 12,13 C12,13 -12,13 -12,13 C-12.552000045776367,13 -13,12.552000045776367 -13,12 C-13,12 -13,-12 -13,-12 C-13,-12.552000045776367 -12.552000045776367,-13 -12,-13z"></path></g><g id="l_d_2090" opacity="1" transform="matrix(1,0,0,1,40,35)"><path id="l_d_2091" stroke-linecap="butt" stroke-linejoin="miter" fill-opacity="0" stroke-miterlimit="4" stroke="rgb(34,34,34)" stroke-opacity="1" stroke-width="2" d=" M13,0 C13,0 -13,0 -13,0"></path></g><g id="l_d_2092" opacity="1" transform="matrix(1,0,0,1,49,31)"><path id="l_d_2093" fill="rgb(0,0,0)" fill-opacity="1" d=" M0,-1 C0.5519999861717224,-1 1,-0.5519999861717224 1,0 C1,0.5519999861717224 0.5519999861717224,1 0,1 C-0.5519999861717224,1 -1,0.5519999861717224 -1,0 C-1,-0.5519999861717224 -0.5519999861717224,-1 0,-1z"></path></g><g id="l_d_2094" opacity="1" transform="matrix(1,0,0,1,43,31)"><path id="l_d_2095" fill="rgb(0,0,0)" fill-opacity="1" d=" M0,-1 C0.5519999861717224,-1 1,-0.5519999861717224 1,0 C1,0.5519999861717224 0.5519999861717224,1 0,1 C-0.5519999861717224,1 -1,0.5519999861717224 -1,0 C-1,-0.5519999861717224 -0.5519999861717224,-1 0,-1z"></path></g><g id="l_d_2096" opacity="1" transform="matrix(1,0,0,1,37,31)"><path id="l_d_2097" fill="rgb(0,0,0)" fill-opacity="1" d=" M0,-1 C0.5519999861717224,-1 1,-0.5519999861717224 1,0 C1,0.5519999861717224 0.5519999861717224,1 0,1 C-0.5519999861717224,1 -1,0.5519999861717224 -1,0 C-1,-0.5519999861717224 -0.5519999861717224,-1 0,-1z"></path></g><g id="l_d_2098" opacity="1" transform="matrix(1,0,0,1,31,31)"><path id="l_d_2099" fill="rgb(0,0,0)" fill-opacity="1" d=" M0,-1 C0.5519999861717224,-1 1,-0.5519999861717224 1,0 C1,0.5519999861717224 0.5519999861717224,1 0,1 C-0.5519999861717224,1 -1,0.5519999861717224 -1,0 C-1,-0.5519999861717224 -0.5519999861717224,-1 0,-1z"></path></g></g><g id="l_d_2075" transform="matrix(0.9999994039535522,0,0,0.9999994039535522,-23.499977111816406,-17.499977111816406)" opacity="1" style="display: block;"><g id="l_d_2079" opacity="1" transform="matrix(1,0,0,1,40,44)"><path id="l_d_2080" stroke-linecap="butt" stroke-linejoin="miter" fill-opacity="0" stroke-miterlimit="4" stroke="rgb(34,34,34)" stroke-opacity="1" stroke-width="2" d="M0 0"></path></g><g id="l_d_2081" opacity="1" transform="matrix(1,0,0,1,40,40)"><path id="l_d_2082" stroke-linecap="butt" stroke-linejoin="miter" fill-opacity="0" stroke-miterlimit="4" stroke="rgb(34,34,34)" stroke-opacity="1" stroke-width="2" d=" M-9,-1 C-9,-1 9,-1 9,-1 C9,-1 9,9 9,9 C9,9 -9,9 -9,9 C-9,9 -9,-1 -9,-1z M-12,-4.997000217437744 C-12,-4.997000217437744 12,-4.997000217437744 12,-4.997000217437744 C12.552000045776367,-4.997000217437744 13,-4.548999786376953 13,-3.996999979019165 C13,-3.996999979019165 13,12 13,12 C13,12.552000045776367 12.552000045776367,13 12,13 C12,13 -12,13 -12,13 C-12.552000045776367,13 -13,12.552000045776367 -13,12 C-13,12 -13,-3.996999979019165 -13,-3.996999979019165 C-13,-4.548999786376953 -12.552000045776367,-4.997000217437744 -12,-4.997000217437744z"></path></g></g><g id="l_d_2067" transform="matrix(0.9999498724937439,0,0,0.9999498724937439,-23.497997283935547,-17.497997283935547)" opacity="1" style="display: none;"><g id="l_d_2071" opacity="1" transform="matrix(1,0,0,1,40,44)"><path id="l_d_2072" stroke-linecap="butt" stroke-linejoin="miter" fill-opacity="0" stroke-miterlimit="4" stroke="rgb(34,34,34)" stroke-opacity="1" stroke-width="2" d=" M-9,-5 C-9,-5 9,-5 9,-5 C9,-5 9,5 9,5 C9,5 -9,5 -9,5 C-9,5 -9,-5 -9,-5z"></path></g><g id="l_d_2073" opacity="1" transform="matrix(1,0,0,1,40,35)"><path id="l_d_2074" stroke-linecap="butt" stroke-linejoin="miter" fill-opacity="0" stroke-miterlimit="4" stroke="rgb(34,34,34)" stroke-opacity="1" stroke-width="2" d=" M13,0 C13,0 -13,0 -13,0"></path></g></g></g></svg>