<svg xmlns="http://www.w3.org/2000/svg" width="372.745" height="90" viewBox="0 0 372.745 90">
  <g id="logo" transform="translate(-400 -40)">
    <path id="Path_1" data-name="Path 1" d="M282.5,350.636V305.628L260,283.13l-9.548,9.548-12.95,12.95-.006,22.5H251V311.227l9-9,9,9v25.906H219.491v-39.39l17.993-17.993H256.6l-19.1-19.113-.009.009-.009-.009v.018l-31.5,31.5v58.486H282.5Z" transform="translate(194.012 -220.636)" fill="#f06a55"/>
    <path id="Path_2" data-name="Path 2" d="M349.454,303.138l6.875-6.347c-4.5-5.223-11.238-8-19.369-8-14.743,0-25.452,9.982-25.452,23.931s10.709,23.931,25.254,23.931a31.937,31.937,0,0,0,18.709-5.883V312h-9.784v13.552a17.005,17.005,0,0,1-8.33,1.983c-8.859,0-15.008-6.148-15.008-14.808,0-8.793,6.148-14.808,15.14-14.808a15.659,15.659,0,0,1,11.965,5.223m38.685,32.723h9.784V300.295H387.61V317.88c0,6.545-3.437,9.586-8.2,9.586-4.561,0-7.206-2.645-7.206-8.595V300.295H361.894v20.1c0,10.974,6.28,16,15.205,16a14.389,14.389,0,0,0,11.04-4.759Zm43.114-20.89H413.734a8.884,8.884,0,0,1,17.519,0m9.52,6.015c.066-.859.2-1.983.2-2.777,0-11.436-8.066-18.444-18.511-18.444-10.841,0-18.973,7.669-18.973,18.312,0,10.577,8,18.312,20.295,18.312,6.413,0,11.371-1.983,14.676-5.751l-5.487-5.95a12.055,12.055,0,0,1-8.925,3.438c-5.421,0-9.19-2.711-10.181-7.14Zm13.354-10.114c0-1.851,1.983-3.305,6.611-3.305a20.42,20.42,0,0,1,10.247,2.645l3.437-7.339c-3.372-1.983-8.793-3.107-13.684-3.107-10.379,0-16.461,4.76-16.461,11.5,0,14.213,21.485,8.263,21.485,14.081,0,1.983-1.786,3.239-6.545,3.239a24.333,24.333,0,0,1-12.362-3.437l-3.438,7.4c3.305,2.181,9.388,3.834,15.4,3.834,10.644,0,16.792-4.693,16.792-11.3,0-14.015-21.485-8.131-21.485-14.213m35.6-3.173h13.239v-7.933H489.723v-7.339H479.411v31.2c0,8.463,4.892,12.759,13.288,12.759a14.746,14.746,0,0,0,8.4-2.247l-2.777-7.272a6.954,6.954,0,0,1-4.165,1.322c-2.777,0-4.429-1.653-4.429-4.694Zm37.352,16.924c-1.19,3.239-4.165,4.826-7.6,4.826-3.636,0-5.818-1.719-5.818-4.3,0-2.38,1.521-4.165,6.347-4.165h7.074Zm.661,11.238h9.652V315.566c0-10.381-5.841-15.409-15.96-15.765l-1.159-.035H507.894V307.7H519.88c4.846.309,7.195,3.128,7.195,7.272h-8.2c-10.842,0-15.271,4.363-15.271,10.643,0,6.148,4.959,10.776,13.289,10.776,5.223,0,8.925-1.718,10.841-4.958Zm50.376-35.566h-9.917l-10.048,24.13-9.983-24.13H537.521l15.4,35.831-.133.33c-1.388,3.173-2.975,4.429-5.817,4.429a9.14,9.14,0,0,1-5.818-2.248l-3.768,7.339c2.314,2.049,6.281,3.239,9.917,3.239,6.412,0,11.3-2.578,14.743-11.172Z" transform="translate(194.633 -225.993)" fill="#333"/>
  </g>
</svg>