<svg id="l_d_2491" xmlns="http://www.w3.org/2000/svg" xmlns:xlink="http://www.w3.org/1999/xlink" viewBox="0 0 45 45" width="45" height="45" preserveAspectRatio="xMidYMid meet" style="width: 100%; height: 100%; transform: translate3d(0px, 0px, 0px); content-visibility: visible;"><defs id="l_d_2492"><clipPath id="__lottie_element_1074"><rect id="l_d_2495" width="45" height="45" x="0" y="0"></rect></clipPath><clipPath id="__lottie_element_1080"><path id="l_d_2520" d="M0,0 L80,0 L80,80 L0,80z"></path></clipPath><clipPath id="__lottie_element_1087"><path id="l_d_2533" d="M0,0 L80,0 L80,80 L0,80z"></path></clipPath></defs><g id="l_d_2493" clip-path="url(#__lottie_element_1074)"><g id="l_d_2530" clip-path="url(#__lottie_element_1087)" transform="matrix(1,0,0,1,-25,-17.625)" opacity="1" style="display: block;"><g id="l_d_2536" transform="matrix(1,0,0,1,0,0)" opacity="1" style="display: block;"><g id="l_d_2540" opacity="1" transform="matrix(1,0,0,1,0,0)"><g id="l_d_2541" opacity="1" transform="matrix(1,0,0,1,40,35)"><path id="l_d_2542" stroke-linecap="butt" stroke-linejoin="miter" fill-opacity="0" stroke-miterlimit="4" stroke="rgb(34,34,34)" stroke-opacity="1" stroke-width="2" d=" M0,-9 C4.418000221252441,-9 8,-5.418000221252441 8,-1 C8,-1 8,9 8,9 C8,9 0,9 0,9 C0,9 0,-5.875 0,-9z M-0.08299999684095383,1 C-0.08299999684095383,1 8,1 8,1 M0,-9.956999778747559 C0,-9.956999778747559 0,-8.454999923706055 0,-8.454999923706055 C0,-8.454999923706055 0,9 0,9"></path></g></g></g></g><g id="l_d_2517" clip-path="url(#__lottie_element_1080)" transform="matrix(-1,0,0,1,55,-17.625)" opacity="1" style="display: block;"><g id="l_d_2523" transform="matrix(1,0,0,1,0,0)" opacity="1" style="display: block;"><g id="l_d_2527" opacity="1" transform="matrix(1,0,0,1,0,0)"><g id="l_d_2528" opacity="1" transform="matrix(1,0,0,1,40,35)"><path id="l_d_2529" stroke-linecap="butt" stroke-linejoin="miter" fill-opacity="0" stroke-miterlimit="4" stroke="rgb(34,34,34)" stroke-opacity="1" stroke-width="2" d=" M0,-9 C4.418000221252441,-9 8,-5.418000221252441 8,-1 C8,-1 8,9 8,9 C8,9 0,9 0,9 C0,9 0,-5.875 0,-9z M-0.08299999684095383,1 C-0.08299999684095383,1 8,1 8,1 M0,-9.956999778747559 C0,-9.956999778747559 0,-8.454999923706055 0,-8.454999923706055 C0,-8.454999923706055 0,9 0,9"></path></g></g></g></g><g id="l_d_2496" transform="matrix(1,0,0,1,-25,-17.625)" opacity="1" style="display: block;"><g id="l_d_2500" opacity="1" transform="matrix(1,0,0,1,0,0)"><g id="l_d_2501" opacity="1" transform="matrix(1,0,0,1,50,49)"><path id="l_d_2502" stroke-linecap="butt" stroke-linejoin="miter" fill-opacity="0" stroke-miterlimit="4" stroke="rgb(34,34,34)" stroke-opacity="1" stroke-width="2" d=" M0,-5 C0,-5 0,5 0,5"></path></g><g id="l_d_2503" opacity="1" transform="matrix(1,0,0,1,46,49)"><path id="l_d_2504" stroke-linecap="butt" stroke-linejoin="miter" fill-opacity="0" stroke-miterlimit="4" stroke="rgb(34,34,34)" stroke-opacity="1" stroke-width="2" d=" M0,-5 C0,-5 0,5 0,5"></path></g><g id="l_d_2505" opacity="1" transform="matrix(1,0,0,1,42,49)"><path id="l_d_2506" stroke-linecap="butt" stroke-linejoin="miter" fill-opacity="0" stroke-miterlimit="4" stroke="rgb(34,34,34)" stroke-opacity="1" stroke-width="2" d=" M0,-5 C0,-5 0,5 0,5"></path></g><g id="l_d_2507" opacity="1" transform="matrix(1,0,0,1,38,49)"><path id="l_d_2508" stroke-linecap="butt" stroke-linejoin="miter" fill-opacity="0" stroke-miterlimit="4" stroke="rgb(34,34,34)" stroke-opacity="1" stroke-width="2" d=" M0,-5 C0,-5 0,5 0,5"></path></g><g id="l_d_2509" opacity="1" transform="matrix(1,0,0,1,34,49)"><path id="l_d_2510" stroke-linecap="butt" stroke-linejoin="miter" fill-opacity="0" stroke-miterlimit="4" stroke="rgb(34,34,34)" stroke-opacity="1" stroke-width="2" d=" M0,-5 C0,-5 0,5 0,5"></path></g><g id="l_d_2511" opacity="1" transform="matrix(1,0,0,1,30,49)"><path id="l_d_2512" stroke-linecap="butt" stroke-linejoin="miter" fill-opacity="0" stroke-miterlimit="4" stroke="rgb(34,34,34)" stroke-opacity="1" stroke-width="2" d=" M0,-5 C0,-5 0,5 0,5"></path></g><g id="l_d_2513" opacity="1" transform="matrix(1,0,0,1,40,54)"><path id="l_d_2514" stroke-linecap="butt" stroke-linejoin="miter" fill-opacity="0" stroke-miterlimit="4" stroke="rgb(34,34,34)" stroke-opacity="1" stroke-width="2" d=" M-13,0 C-13,0 13,0 13,0"></path></g><g id="l_d_2515" opacity="1" transform="matrix(1,0,0,1,40,44)"><path id="l_d_2516" stroke-linecap="butt" stroke-linejoin="miter" fill-opacity="0" stroke-miterlimit="4" stroke="rgb(34,34,34)" stroke-opacity="1" stroke-width="2" d=" M-13,0 C-13,0 13,0 13,0"></path></g></g></g></g></svg>