<svg id="l_d_3176" xmlns="http://www.w3.org/2000/svg" xmlns:xlink="http://www.w3.org/1999/xlink" viewBox="0 0 45 45" width="45" height="45" preserveAspectRatio="xMidYMid meet" style="width: 100%; height: 100%; transform: translate3d(0px, 0px, 0px); content-visibility: visible;"><defs id="l_d_3177"><clipPath id="__lottie_element_1377"><rect id="l_d_3180" width="45" height="45" x="0" y="0"></rect></clipPath><clipPath id="__lottie_element_1419"><path id="l_d_3275" d="M0,0 L80,0 L80,80 L0,80z"></path></clipPath><g id="__lottie_element_1422"><g id="l_d_3278" style="display: none;"><g id="l_d_3283"><path id="l_d_3284"></path></g></g></g><mask id="__lottie_element_1422_1" mask-type="alpha"><use id="l_d_3292" xlink:href="#__lottie_element_1422"></use></mask><clipPath id="__lottie_element_1429"><path id="l_d_3295" fill="#ffffff" clip-rule="nonzero" d=" M41.37099838256836,34.875 C41.37099838256836,34.875 35,34.875 35,34.875 C35,34.875 35,57.104000091552734 35,57.104000091552734 C35,57.104000091552734 41.37099838256836,57.104000091552734 41.37099838256836,57.104000091552734 C41.37099838256836,57.104000091552734 41.37099838256836,34.875 41.37099838256836,34.875" fill-opacity="1"></path></clipPath><clipPath id="__lottie_element_1432"><path id="l_d_3304" d="M0,0 L80,0 L80,80 L0,80z"></path></clipPath><g id="__lottie_element_1435"><g id="l_d_3307" style="display: none;"><g id="l_d_3312"><path id="l_d_3313"></path></g></g></g><mask id="__lottie_element_1435_1" mask-type="alpha"><use id="l_d_3321" xlink:href="#__lottie_element_1435"></use></mask><clipPath id="__lottie_element_1442"><path id="l_d_3324" fill="#ffffff" clip-rule="nonzero" d=" M41.37099838256836,34.875 C41.37099838256836,34.875 35,34.875 35,34.875 C35,34.875 35,57.104000091552734 35,57.104000091552734 C35,57.104000091552734 41.37099838256836,57.104000091552734 41.37099838256836,57.104000091552734 C41.37099838256836,57.104000091552734 41.37099838256836,34.875 41.37099838256836,34.875" fill-opacity="1"></path></clipPath><clipPath id="__lottie_element_1445"><path id="l_d_3333" d="M0,0 L80,0 L80,80 L0,80z"></path></clipPath><g id="__lottie_element_1448"><g id="l_d_3336" style="display: none;"><g id="l_d_3341"><path id="l_d_3342"></path></g></g></g><mask id="__lottie_element_1448_1" mask-type="alpha"><use id="l_d_3350" xlink:href="#__lottie_element_1448"></use></mask><clipPath id="__lottie_element_1455"><path id="l_d_3353" fill="#ffffff" clip-rule="nonzero" d=" M41.37099838256836,34.875 C41.37099838256836,34.875 35,34.875 35,34.875 C35,34.875 35,57.104000091552734 35,57.104000091552734 C35,57.104000091552734 41.37099838256836,57.104000091552734 41.37099838256836,57.104000091552734 C41.37099838256836,57.104000091552734 41.37099838256836,34.875 41.37099838256836,34.875" fill-opacity="1"></path></clipPath></defs><g id="l_d_3178" clip-path="url(#__lottie_element_1377)"><g id="l_d_3359" transform="matrix(1,0,0,1,-26,-17.25)" opacity="1" style="display: block;"><g id="l_d_3363" opacity="1" transform="matrix(1,0,0,1,36.5,40.5)"><path id="l_d_3364" stroke-linecap="butt" stroke-linejoin="miter" fill-opacity="0" stroke-miterlimit="4" stroke="rgb(34,34,34)" stroke-opacity="1" stroke-width="2" d=" M7.5,-10.5 C7.5,-10.5 7.5,-12.5 7.5,-12.5 C7.5,-13.604999542236328 6.605000019073486,-14.5 5.5,-14.5 C5.5,-14.5 -5.5,-14.5 -5.5,-14.5 C-6.605000019073486,-14.5 -7.5,-13.604999542236328 -7.5,-12.5 C-7.5,-12.5 -7.5,14.5 -7.5,14.5 C-7.5,14.5 -7.5,14.5 -7.5,14.5"></path></g><g id="l_d_3365" opacity="1" transform="matrix(1,0,0,1,44,32)"><path id="l_d_3366" stroke-linecap="butt" stroke-linejoin="round" fill-opacity="0" stroke="rgb(34,34,34)" stroke-opacity="1" stroke-width="2" d=" M6,-2 C6,-2 -6,-2 -6,-2 C-6,-2 -6,2 -6,2 C-6,2 6,2 6,2 C6,2 6,-2 6,-2z"></path></g><g id="l_d_3367" opacity="1" transform="matrix(1,0,0,1,44,34)"><path id="l_d_3368" stroke-linecap="butt" stroke-linejoin="round" fill-opacity="0" stroke="rgb(34,34,34)" stroke-opacity="1" stroke-width="2" d=" M-9,0 C-9,0 9,0 9,0"></path></g></g><g id="l_d_3330" clip-path="url(#__lottie_element_1445)" transform="matrix(1,0,0,1,-26,-17.25)" opacity="1" style="display: block;"><g id="l_d_3351" clip-path="url(#__lottie_element_1455)" transform="matrix(1,0,0,1,0,0)" opacity="1" style="display: block;"><g id="l_d_3356" opacity="1" transform="matrix(1,0,0,1,0,0)"><g id="l_d_3357" opacity="1" transform="matrix(1,0,0,1,39,54)"><path id="l_d_3358" fill="rgb(34,34,34)" fill-opacity="1" d=" M5,-17 C4.447999954223633,-17 4,-16.552000045776367 4,-16 C4,-15.447999954223633 4.447999954223633,-15 5,-15 C5.552000045776367,-15 6,-15.447999954223633 6,-16 C6,-16.552000045776367 5.552000045776367,-17 5,-17z M0,-17 C-0.5519999861717224,-17 -1,-16.552000045776367 -1,-16 C-1,-15.447999954223633 -0.5519999861717224,-15 0,-15 C0.5519999861717224,-15 1,-15.447999954223633 1,-16 C1,-16.552000045776367 0.5519999861717224,-17 0,-17z M10,-17 C9.447999954223633,-17 9,-16.552000045776367 9,-16 C9,-15.447999954223633 9.447999954223633,-15 10,-15 C10.552000045776367,-15 11,-15.447999954223633 11,-16 C11,-16.552000045776367 10.552000045776367,-17 10,-17z M5,-13 C4.447999954223633,-13 4,-12.552000045776367 4,-12 C4,-11.447999954223633 4.447999954223633,-11 5,-11 C5.552000045776367,-11 6,-11.447999954223633 6,-12 C6,-12.552000045776367 5.552000045776367,-13 5,-13z M10,-13 C9.447999954223633,-13 9,-12.552000045776367 9,-12 C9,-11.447999954223633 9.447999954223633,-11 10,-11 C10.552000045776367,-11 11,-11.447999954223633 11,-12 C11,-12.552000045776367 10.552000045776367,-13 10,-13z M0,-13 C-0.5519999861717224,-13 -1,-12.552000045776367 -1,-12 C-1,-11.447999954223633 -0.5519999861717224,-11 0,-11 C0.5519999861717224,-11 1,-11.447999954223633 1,-12 C1,-12.552000045776367 0.5519999861717224,-13 0,-13z M5,-9 C4.447999954223633,-9 4,-8.552000045776367 4,-8 C4,-7.447999954223633 4.447999954223633,-7 5,-7 C5.552000045776367,-7 6,-7.447999954223633 6,-8 C6,-8.552000045776367 5.552000045776367,-9 5,-9z M10,-9 C9.447999954223633,-9 9,-8.552000045776367 9,-8 C9,-7.447999954223633 9.447999954223633,-7 10,-7 C10.552000045776367,-7 11,-7.447999954223633 11,-8 C11,-8.552000045776367 10.552000045776367,-9 10,-9z M0,-9 C-0.5519999861717224,-9 -1,-8.552000045776367 -1,-8 C-1,-7.447999954223633 -0.5519999861717224,-7 0,-7 C0.5519999861717224,-7 1,-7.447999954223633 1,-8 C1,-8.552000045776367 0.5519999861717224,-9 0,-9z M5,-5 C4.447999954223633,-5 4,-4.552000045776367 4,-4 C4,-3.447999954223633 4.447999954223633,-3 5,-3 C5.552000045776367,-3 6,-3.447999954223633 6,-4 C6,-4.552000045776367 5.552000045776367,-5 5,-5z M10,-5 C9.447999954223633,-5 9,-4.552000045776367 9,-4 C9,-3.447999954223633 9.447999954223633,-3 10,-3 C10.552000045776367,-3 11,-3.447999954223633 11,-4 C11,-4.552000045776367 10.552000045776367,-5 10,-5z M0,-5 C-0.5519999861717224,-5 -1,-4.552000045776367 -1,-4 C-1,-3.447999954223633 -0.5519999861717224,-3 0,-3 C0.5519999861717224,-3 1,-3.447999954223633 1,-4 C1,-4.552000045776367 0.5519999861717224,-5 0,-5z M5,-1 C4.447999954223633,-1 4,-0.5519999861717224 4,0 C4,0.5519999861717224 4.447999954223633,1 5,1 C5.552000045776367,1 6,0.5519999861717224 6,0 C6,-0.5519999861717224 5.552000045776367,-1 5,-1z M10,-1 C9.447999954223633,-1 9,-0.5519999861717224 9,0 C9,0.5519999861717224 9.447999954223633,1 10,1 C10.552000045776367,1 11,0.5519999861717224 11,0 C11,-0.5519999861717224 10.552000045776367,-1 10,-1z M0,-1 C-0.5519999861717224,-1 -1,-0.5519999861717224 -1,0 C-1,0.5519999861717224 -0.5519999861717224,1 0,1 C0.5519999861717224,1 1,0.5519999861717224 1,0 C1,-0.5519999861717224 0.5519999861717224,-1 0,-1z"></path></g></g></g><g id="l_d_3344" mask="url(#__lottie_element_1448_1)" style="display: block;"><g id="l_d_3343" transform="matrix(1,0,0,1,40,30)" opacity="1"><g id="l_d_3347" opacity="1" transform="matrix(1,0,0,1,0,0)"><path id="l_d_3348" stroke-linecap="round" stroke-linejoin="miter" fill-opacity="0" stroke-miterlimit="4" stroke-dasharray=" 0.1 4" stroke-dashoffset="6" stroke="rgb(34,34,34)" stroke-opacity="1" stroke-width="2" d=" M-1.00600004196167,-29.00200080871582 C-1.00600004196167,-29.00200080871582 -1.0119999647140503,30.87299919128418 -1.0119999647140503,30.87299919128418"></path></g></g></g></g><g id="l_d_3301" clip-path="url(#__lottie_element_1432)" transform="matrix(1,0,0,1,-21,-17.25)" opacity="1" style="display: block;"><g id="l_d_3322" clip-path="url(#__lottie_element_1442)" transform="matrix(1,0,0,1,0,0)" opacity="1" style="display: block;"><g id="l_d_3327" opacity="1" transform="matrix(1,0,0,1,0,0)"><g id="l_d_3328" opacity="1" transform="matrix(1,0,0,1,39,54)"><path id="l_d_3329" fill="rgb(34,34,34)" fill-opacity="1" d=" M5,-17 C4.447999954223633,-17 4,-16.552000045776367 4,-16 C4,-15.447999954223633 4.447999954223633,-15 5,-15 C5.552000045776367,-15 6,-15.447999954223633 6,-16 C6,-16.552000045776367 5.552000045776367,-17 5,-17z M0,-17 C-0.5519999861717224,-17 -1,-16.552000045776367 -1,-16 C-1,-15.447999954223633 -0.5519999861717224,-15 0,-15 C0.5519999861717224,-15 1,-15.447999954223633 1,-16 C1,-16.552000045776367 0.5519999861717224,-17 0,-17z M10,-17 C9.447999954223633,-17 9,-16.552000045776367 9,-16 C9,-15.447999954223633 9.447999954223633,-15 10,-15 C10.552000045776367,-15 11,-15.447999954223633 11,-16 C11,-16.552000045776367 10.552000045776367,-17 10,-17z M5,-13 C4.447999954223633,-13 4,-12.552000045776367 4,-12 C4,-11.447999954223633 4.447999954223633,-11 5,-11 C5.552000045776367,-11 6,-11.447999954223633 6,-12 C6,-12.552000045776367 5.552000045776367,-13 5,-13z M10,-13 C9.447999954223633,-13 9,-12.552000045776367 9,-12 C9,-11.447999954223633 9.447999954223633,-11 10,-11 C10.552000045776367,-11 11,-11.447999954223633 11,-12 C11,-12.552000045776367 10.552000045776367,-13 10,-13z M0,-13 C-0.5519999861717224,-13 -1,-12.552000045776367 -1,-12 C-1,-11.447999954223633 -0.5519999861717224,-11 0,-11 C0.5519999861717224,-11 1,-11.447999954223633 1,-12 C1,-12.552000045776367 0.5519999861717224,-13 0,-13z M5,-9 C4.447999954223633,-9 4,-8.552000045776367 4,-8 C4,-7.447999954223633 4.447999954223633,-7 5,-7 C5.552000045776367,-7 6,-7.447999954223633 6,-8 C6,-8.552000045776367 5.552000045776367,-9 5,-9z M10,-9 C9.447999954223633,-9 9,-8.552000045776367 9,-8 C9,-7.447999954223633 9.447999954223633,-7 10,-7 C10.552000045776367,-7 11,-7.447999954223633 11,-8 C11,-8.552000045776367 10.552000045776367,-9 10,-9z M0,-9 C-0.5519999861717224,-9 -1,-8.552000045776367 -1,-8 C-1,-7.447999954223633 -0.5519999861717224,-7 0,-7 C0.5519999861717224,-7 1,-7.447999954223633 1,-8 C1,-8.552000045776367 0.5519999861717224,-9 0,-9z M5,-5 C4.447999954223633,-5 4,-4.552000045776367 4,-4 C4,-3.447999954223633 4.447999954223633,-3 5,-3 C5.552000045776367,-3 6,-3.447999954223633 6,-4 C6,-4.552000045776367 5.552000045776367,-5 5,-5z M10,-5 C9.447999954223633,-5 9,-4.552000045776367 9,-4 C9,-3.447999954223633 9.447999954223633,-3 10,-3 C10.552000045776367,-3 11,-3.447999954223633 11,-4 C11,-4.552000045776367 10.552000045776367,-5 10,-5z M0,-5 C-0.5519999861717224,-5 -1,-4.552000045776367 -1,-4 C-1,-3.447999954223633 -0.5519999861717224,-3 0,-3 C0.5519999861717224,-3 1,-3.447999954223633 1,-4 C1,-4.552000045776367 0.5519999861717224,-5 0,-5z M5,-1 C4.447999954223633,-1 4,-0.5519999861717224 4,0 C4,0.5519999861717224 4.447999954223633,1 5,1 C5.552000045776367,1 6,0.5519999861717224 6,0 C6,-0.5519999861717224 5.552000045776367,-1 5,-1z M10,-1 C9.447999954223633,-1 9,-0.5519999861717224 9,0 C9,0.5519999861717224 9.447999954223633,1 10,1 C10.552000045776367,1 11,0.5519999861717224 11,0 C11,-0.5519999861717224 10.552000045776367,-1 10,-1z M0,-1 C-0.5519999861717224,-1 -1,-0.5519999861717224 -1,0 C-1,0.5519999861717224 -0.5519999861717224,1 0,1 C0.5519999861717224,1 1,0.5519999861717224 1,0 C1,-0.5519999861717224 0.5519999861717224,-1 0,-1z"></path></g></g></g><g id="l_d_3315" mask="url(#__lottie_element_1435_1)" style="display: block;"><g id="l_d_3314" transform="matrix(1,0,0,1,40,30)" opacity="1"><g id="l_d_3318" opacity="1" transform="matrix(1,0,0,1,0,0)"><path id="l_d_3319" stroke-linecap="round" stroke-linejoin="miter" fill-opacity="0" stroke-miterlimit="4" stroke-dasharray=" 0.1 4" stroke-dashoffset="6" stroke="rgb(34,34,34)" stroke-opacity="1" stroke-width="2" d=" M-1.00600004196167,-29.00200080871582 C-1.00600004196167,-29.00200080871582 -1.0119999647140503,30.87299919128418 -1.0119999647140503,30.87299919128418"></path></g></g></g></g><g id="l_d_3272" clip-path="url(#__lottie_element_1419)" transform="matrix(1,0,0,1,-16.08300018310547,-17.25)" opacity="1" style="display: block;"><g id="l_d_3293" clip-path="url(#__lottie_element_1429)" transform="matrix(1,0,0,1,0,0)" opacity="1" style="display: block;"><g id="l_d_3298" opacity="1" transform="matrix(1,0,0,1,0,0)"><g id="l_d_3299" opacity="1" transform="matrix(1,0,0,1,39,54)"><path id="l_d_3300" fill="rgb(34,34,34)" fill-opacity="1" d=" M5,-17 C4.447999954223633,-17 4,-16.552000045776367 4,-16 C4,-15.447999954223633 4.447999954223633,-15 5,-15 C5.552000045776367,-15 6,-15.447999954223633 6,-16 C6,-16.552000045776367 5.552000045776367,-17 5,-17z M0,-17 C-0.5519999861717224,-17 -1,-16.552000045776367 -1,-16 C-1,-15.447999954223633 -0.5519999861717224,-15 0,-15 C0.5519999861717224,-15 1,-15.447999954223633 1,-16 C1,-16.552000045776367 0.5519999861717224,-17 0,-17z M10,-17 C9.447999954223633,-17 9,-16.552000045776367 9,-16 C9,-15.447999954223633 9.447999954223633,-15 10,-15 C10.552000045776367,-15 11,-15.447999954223633 11,-16 C11,-16.552000045776367 10.552000045776367,-17 10,-17z M5,-13 C4.447999954223633,-13 4,-12.552000045776367 4,-12 C4,-11.447999954223633 4.447999954223633,-11 5,-11 C5.552000045776367,-11 6,-11.447999954223633 6,-12 C6,-12.552000045776367 5.552000045776367,-13 5,-13z M10,-13 C9.447999954223633,-13 9,-12.552000045776367 9,-12 C9,-11.447999954223633 9.447999954223633,-11 10,-11 C10.552000045776367,-11 11,-11.447999954223633 11,-12 C11,-12.552000045776367 10.552000045776367,-13 10,-13z M0,-13 C-0.5519999861717224,-13 -1,-12.552000045776367 -1,-12 C-1,-11.447999954223633 -0.5519999861717224,-11 0,-11 C0.5519999861717224,-11 1,-11.447999954223633 1,-12 C1,-12.552000045776367 0.5519999861717224,-13 0,-13z M5,-9 C4.447999954223633,-9 4,-8.552000045776367 4,-8 C4,-7.447999954223633 4.447999954223633,-7 5,-7 C5.552000045776367,-7 6,-7.447999954223633 6,-8 C6,-8.552000045776367 5.552000045776367,-9 5,-9z M10,-9 C9.447999954223633,-9 9,-8.552000045776367 9,-8 C9,-7.447999954223633 9.447999954223633,-7 10,-7 C10.552000045776367,-7 11,-7.447999954223633 11,-8 C11,-8.552000045776367 10.552000045776367,-9 10,-9z M0,-9 C-0.5519999861717224,-9 -1,-8.552000045776367 -1,-8 C-1,-7.447999954223633 -0.5519999861717224,-7 0,-7 C0.5519999861717224,-7 1,-7.447999954223633 1,-8 C1,-8.552000045776367 0.5519999861717224,-9 0,-9z M5,-5 C4.447999954223633,-5 4,-4.552000045776367 4,-4 C4,-3.447999954223633 4.447999954223633,-3 5,-3 C5.552000045776367,-3 6,-3.447999954223633 6,-4 C6,-4.552000045776367 5.552000045776367,-5 5,-5z M10,-5 C9.447999954223633,-5 9,-4.552000045776367 9,-4 C9,-3.447999954223633 9.447999954223633,-3 10,-3 C10.552000045776367,-3 11,-3.447999954223633 11,-4 C11,-4.552000045776367 10.552000045776367,-5 10,-5z M0,-5 C-0.5519999861717224,-5 -1,-4.552000045776367 -1,-4 C-1,-3.447999954223633 -0.5519999861717224,-3 0,-3 C0.5519999861717224,-3 1,-3.447999954223633 1,-4 C1,-4.552000045776367 0.5519999861717224,-5 0,-5z M5,-1 C4.447999954223633,-1 4,-0.5519999861717224 4,0 C4,0.5519999861717224 4.447999954223633,1 5,1 C5.552000045776367,1 6,0.5519999861717224 6,0 C6,-0.5519999861717224 5.552000045776367,-1 5,-1z M10,-1 C9.447999954223633,-1 9,-0.5519999861717224 9,0 C9,0.5519999861717224 9.447999954223633,1 10,1 C10.552000045776367,1 11,0.5519999861717224 11,0 C11,-0.5519999861717224 10.552000045776367,-1 10,-1z M0,-1 C-0.5519999861717224,-1 -1,-0.5519999861717224 -1,0 C-1,0.5519999861717224 -0.5519999861717224,1 0,1 C0.5519999861717224,1 1,0.5519999861717224 1,0 C1,-0.5519999861717224 0.5519999861717224,-1 0,-1z"></path></g></g></g><g id="l_d_3286" mask="url(#__lottie_element_1422_1)" style="display: block;"><g id="l_d_3285" transform="matrix(1,0,0,1,40,30)" opacity="1"><g id="l_d_3289" opacity="1" transform="matrix(1,0,0,1,0,0)"><path id="l_d_3290" stroke-linecap="round" stroke-linejoin="miter" fill-opacity="0" stroke-miterlimit="4" stroke-dasharray=" 0.1 4" stroke-dashoffset="6" stroke="rgb(34,34,34)" stroke-opacity="1" stroke-width="2" d=" M-1.00600004196167,-29.00200080871582 C-1.00600004196167,-29.00200080871582 -1.0119999647140503,30.87299919128418 -1.0119999647140503,30.87299919128418"></path></g></g></g></g><g id="l_d_3265" style="display: none;"><g id="l_d_3269"><g id="l_d_3270"><path id="l_d_3271"></path></g></g></g><g id="l_d_3258" style="display: none;"><g id="l_d_3262"><g id="l_d_3263"><path id="l_d_3264"></path></g></g></g><g id="l_d_3251" style="display: none;"><g id="l_d_3255"><g id="l_d_3256"><path id="l_d_3257"></path></g></g></g><g id="l_d_3244" style="display: none;"><g id="l_d_3248"><g id="l_d_3249"><path id="l_d_3250"></path></g></g></g><g id="l_d_3237" style="display: none;"><g id="l_d_3241"><g id="l_d_3242"><path id="l_d_3243"></path></g></g></g><g id="l_d_3230" style="display: none;"><g id="l_d_3234"><g id="l_d_3235"><path id="l_d_3236"></path></g></g></g><g id="l_d_3223" style="display: none;"><g id="l_d_3227"><g id="l_d_3228"><path id="l_d_3229"></path></g></g></g><g id="l_d_3216" style="display: none;"><g id="l_d_3220"><g id="l_d_3221"><path id="l_d_3222"></path></g></g></g><g id="l_d_3209" style="display: none;"><g id="l_d_3213"><g id="l_d_3214"><path id="l_d_3215"></path></g></g></g><g id="l_d_3202" style="display: none;"><g id="l_d_3206"><g id="l_d_3207"><path id="l_d_3208"></path></g></g></g><g id="l_d_3195" style="display: none;"><g id="l_d_3199"><g id="l_d_3200"><path id="l_d_3201"></path></g></g></g><g id="l_d_3188" style="display: none;"><g id="l_d_3192"><g id="l_d_3193"><path id="l_d_3194"></path></g></g></g><g id="l_d_3181" style="display: none;"><g id="l_d_3185"><g id="l_d_3186"><path id="l_d_3187"></path></g></g></g></g></svg>